<svg width="16" height="16" viewBox="0 0 16 16" fill="none" xmlns="http://www.w3.org/2000/svg">
<g clip-path="url(#clip0_3672_9793)">
<path d="M15.2303 7.41931C15.1919 7.23107 15.0758 7.06333 14.9124 6.95466C14.831 6.52156 14.7013 6.09706 14.5174 5.69292C14.4505 5.54589 14.3195 5.43734 14.1579 5.39508L14.1565 5.39438C12.9393 5.07758 11.6993 4.79152 10.4707 4.54277C8.88 3.96794 7.25236 3.43277 5.62872 2.94398C5.68384 2.82743 5.70005 2.69818 5.66935 2.57128C5.6324 2.41918 5.5359 2.28992 5.39766 2.20716L3.52441 1.08869C3.38629 1.00629 3.22325 0.979684 3.06403 1.01571C2.90528 1.05091 2.77023 1.14344 2.6843 1.27599L0.0924686 5.26701C0.00628277 5.39957 -0.0208501 5.55661 0.0161046 5.70906C0.0530593 5.86116 0.149557 5.99041 0.287796 6.07317L1.10031 6.5582L2.16068 7.19119C2.25877 7.25005 2.36951 7.2803 2.4822 7.27995C2.52849 7.27995 2.57514 7.27513 2.62142 7.26465C2.76052 7.23381 2.87494 7.15293 2.96064 7.0458C3.42473 8.27765 4.23341 9.34775 5.33259 10.1607C7.23149 11.3781 9.12518 12.6569 10.9603 13.9622C10.9955 13.9873 11.0374 14 11.0794 14C11.1131 14 11.1466 13.9918 11.177 13.9756C11.8175 13.6321 12.0471 12.853 11.6891 12.2384C11.662 12.1919 11.6317 12.1474 11.5985 12.104C11.0614 11.4061 10.3936 10.8293 9.6139 10.3899C9.36369 10.2487 9.19746 10.0097 9.1578 9.73408C9.12367 9.49511 9.18849 9.25732 9.34036 9.06508C9.49235 8.8726 9.71346 8.74852 9.96269 8.71555C10.289 8.67281 10.6201 8.67364 10.9465 8.71779C12.0065 8.8627 12.8811 9.63178 13.123 10.6315L13.235 11.0933C13.4409 11.944 14.1179 12.6051 15.0018 12.8181C15.2421 12.8755 15.4855 12.7354 15.546 12.505C15.5628 12.4406 15.5635 12.3716 15.5479 12.3057C15.5088 12.139 15.4665 11.9731 15.4271 11.8064C15.4686 11.8177 15.5103 11.8236 15.5515 11.8236C15.7448 11.8236 15.9237 11.703 15.9812 11.5172C16.0014 11.4532 16.0054 11.3835 15.9928 11.3172C15.7506 10.0295 15.4941 8.71827 15.2303 7.41931ZM2.53065 6.89122C2.47614 6.9024 2.41954 6.89416 2.37203 6.86579L1.48144 6.33382L1.80668 5.83303C1.86512 5.74309 1.83639 5.62478 1.74259 5.56863C1.64904 5.51283 1.52553 5.5405 1.46721 5.63008L1.14176 6.13111L0.499061 5.74722C0.451427 5.71909 0.418401 5.67459 0.405753 5.62209C0.392862 5.5697 0.402193 5.51567 0.431903 5.46999L3.02386 1.47867C3.05332 1.43334 3.09985 1.40156 3.15436 1.38919C3.17032 1.38578 3.1864 1.3839 3.20224 1.3839C3.24116 1.3839 3.27922 1.39437 3.31274 1.41427L5.18624 2.53309C5.23387 2.56123 5.2669 2.60573 5.27955 2.65823C5.29244 2.71062 5.28311 2.76465 5.2534 2.81033L2.66157 6.80135C2.63198 6.84702 2.58541 6.87886 2.53065 6.89122Z" fill="#1A598D"/>
<path d="M11.6254 6.53474C11.6827 6.44492 11.806 6.41608 11.9001 6.47035C12.6842 6.9265 13.4576 7.424 14.1994 7.94799C14.426 8.10832 14.5865 8.3413 14.6522 8.60347C14.8805 9.52005 15.0995 10.4388 15.3187 11.3575C15.3911 11.3874 15.4637 11.4177 15.5377 11.4386C15.5592 11.4434 15.592 11.4281 15.5985 11.407C15.3575 10.0998 15.1013 8.79005 14.8376 7.49287C14.8188 7.39999 14.761 7.31676 14.679 7.26473C14.0756 6.87967 13.4325 6.54332 12.768 6.26503C12.6669 6.22265 12.6207 6.10952 12.6649 6.01251C12.7095 5.91551 12.8282 5.87172 12.9283 5.91363C13.4451 6.13013 13.9493 6.38063 14.4329 6.66093C14.3594 6.38343 14.271 6.10963 14.1513 5.84663C14.133 5.80625 14.0962 5.77612 14.0521 5.76458C12.8374 5.44884 11.6001 5.16265 10.3742 4.91508C10.3693 4.91414 10.3658 4.91096 10.3611 4.90967C10.3557 4.90825 10.3503 4.90884 10.3449 4.90684C8.72691 4.32213 7.07036 3.77707 5.41896 3.2818L3.23854 6.63935C3.65508 7.91953 4.4569 9.02908 5.56627 9.84983C7.42155 11.0383 9.28183 12.2939 11.0878 13.5756C11.4541 13.3116 11.5704 12.8204 11.3407 12.4264C11.3216 12.3938 11.3002 12.362 11.277 12.3317C10.7723 11.6758 10.1448 11.1339 9.41171 10.7206C9.05518 10.5196 8.81848 10.1795 8.76225 9.78689C8.71314 9.44595 8.80559 9.10774 9.02216 8.83357C9.23886 8.55986 9.55363 8.38304 9.90894 8.33619C10.2722 8.28781 10.6401 8.28898 11.0034 8.33843C12.2257 8.50584 13.2343 9.39252 13.5132 10.545L13.6253 11.0068C13.7968 11.7171 14.3621 12.2688 15.0996 12.4464C15.1268 12.4541 15.1519 12.4369 15.1585 12.4122C14.8683 11.1563 14.5702 9.92351 14.2631 8.69272C14.2194 8.51813 14.1124 8.36345 13.962 8.25667M15.2303 7.41931C15.1919 7.23107 15.0758 7.06333 14.9124 6.95466C14.831 6.52156 14.7013 6.09706 14.5174 5.69292C14.4505 5.54589 14.3195 5.43734 14.1579 5.39508L14.1565 5.39438C12.9393 5.07758 11.6993 4.79152 10.4707 4.54277C8.88 3.96794 7.25236 3.43277 5.62872 2.94398C5.68384 2.82743 5.70005 2.69818 5.66935 2.57128C5.6324 2.41918 5.5359 2.28992 5.39766 2.20716L3.52441 1.08869C3.38629 1.00629 3.22325 0.979684 3.06403 1.01571C2.90528 1.05091 2.77023 1.14344 2.6843 1.27599L0.0924686 5.26701C0.00628277 5.39957 -0.0208501 5.55661 0.0161046 5.70906C0.0530593 5.86116 0.149557 5.99041 0.287796 6.07317L1.10031 6.5582L2.16068 7.19119C2.25877 7.25005 2.36951 7.28031 2.4822 7.27995C2.52849 7.27995 2.57514 7.27513 2.62142 7.26465C2.76052 7.23381 2.87494 7.15293 2.96064 7.0458C3.42473 8.27765 4.23341 9.34775 5.33259 10.1607C7.23149 11.3781 9.12518 12.6569 10.9603 13.9622C10.9955 13.9873 11.0374 14 11.0794 14C11.1131 14 11.1466 13.9918 11.177 13.9756C11.8175 13.6321 12.0471 12.853 11.6891 12.2384C11.662 12.1919 11.6317 12.1474 11.5985 12.104C11.0614 11.4061 10.3936 10.8293 9.6139 10.3899C9.36369 10.2487 9.19746 10.0097 9.1578 9.73408C9.12367 9.49511 9.18849 9.25732 9.34036 9.06508C9.49235 8.8726 9.71346 8.74852 9.96269 8.71555C10.289 8.67281 10.6201 8.67364 10.9465 8.71779C12.0065 8.8627 12.8811 9.63178 13.123 10.6315L13.235 11.0933C13.4409 11.944 14.1179 12.6051 15.0018 12.8181C15.2421 12.8755 15.4855 12.7354 15.546 12.505C15.5628 12.4406 15.5635 12.3716 15.5479 12.3057C15.5088 12.139 15.4665 11.9731 15.4271 11.8064C15.4686 11.8177 15.5103 11.8236 15.5515 11.8236C15.7448 11.8236 15.9237 11.703 15.9812 11.5172C16.0014 11.4532 16.0054 11.3835 15.9928 11.3172C15.7506 10.0295 15.4941 8.71827 15.2303 7.41931ZM2.53065 6.89122C2.47614 6.90241 2.41954 6.89416 2.37203 6.86579L1.48144 6.33382L1.80668 5.83303C1.86512 5.74309 1.83639 5.62478 1.74259 5.56863C1.64904 5.51283 1.52553 5.5405 1.46721 5.63008L1.14176 6.13111L0.499061 5.74722C0.451427 5.71909 0.418401 5.67459 0.405753 5.62209C0.392862 5.5697 0.402193 5.51567 0.431903 5.46999L3.02386 1.47867C3.05332 1.43334 3.09985 1.40156 3.15436 1.38919C3.17032 1.38578 3.1864 1.3839 3.20224 1.3839C3.24116 1.3839 3.27922 1.39437 3.31274 1.41427L5.18624 2.53309C5.23387 2.56123 5.2669 2.60573 5.27955 2.65823C5.29244 2.71062 5.28311 2.76465 5.2534 2.81033L2.66157 6.80135C2.63198 6.84703 2.58541 6.87886 2.53065 6.89122Z" stroke="#1A598D" stroke-width="0.2"/>
</g>
<defs>
<clipPath id="clip0_3672_9793">
<rect width="16" height="16" fill="white"/>
</clipPath>
</defs>
</svg>
