<svg width="16" height="16" viewBox="0 0 16 16" fill="none" xmlns="http://www.w3.org/2000/svg">
<g clip-path="url(#clip0_3664_9648)">
<g clip-path="url(#clip1_3664_9648)">
<path d="M11.7647 0.24326C11.4404 -0.0810867 10.9145 -0.0810867 10.59 0.24326C10.2656 0.567737 10.2656 1.09363 10.59 1.41798L10.801 1.62901L6.2768 6.15324H3.79014C3.50789 6.15402 3.23747 6.26616 3.03749 6.46511C2.62192 6.88081 2.62192 7.55471 3.03749 7.97041L4.94614 9.87907L1.11973 13.7055C0.577985 14.2474 0.193733 14.9262 0.00790926 15.6696C-0.0147014 15.7602 0.0119376 15.856 0.0779505 15.9221C0.143963 15.9881 0.239734 16.0146 0.330437 15.9922C1.07373 15.8063 1.75257 15.4219 2.29445 14.8802L6.12086 11.0538L8.02965 12.9624C8.44522 13.378 9.11912 13.378 9.53482 12.9624C9.7339 12.7625 9.84591 12.492 9.84669 12.2099V9.72313L14.3709 5.19891L14.582 5.40994C14.9064 5.73429 15.4323 5.73429 15.7567 5.40994C16.081 5.08559 16.081 4.5597 15.7567 4.23522L11.7647 0.24326ZM1.91787 14.5039C1.56441 14.8575 1.14273 15.1357 0.678564 15.3215C0.864388 14.8572 1.14247 14.4354 1.49606 14.0818L5.32247 10.2554L5.74454 10.6775L1.91787 14.5039Z" fill="#1A598D"/>
<path d="M14.5591 4.63442L14.9583 5.03362C15.0764 5.14641 15.2624 5.14641 15.3803 5.03362C15.4968 4.91705 15.4968 4.72824 15.3803 4.61155L11.3884 0.619586C11.2704 0.506792 11.0844 0.506792 10.9663 0.619586C10.85 0.736278 10.85 0.92509 10.9663 1.04165L11.3655 1.44085C11.4695 1.54481 11.4695 1.71322 11.3655 1.81717L6.57516 6.60753C6.52526 6.65743 6.45755 6.6855 6.38699 6.6855H3.79014C3.64902 6.68602 3.51387 6.74202 3.41381 6.84143C3.20603 7.04935 3.20603 7.3863 3.41381 7.59408L8.40584 12.5861C8.61662 12.7868 8.94772 12.7868 9.1585 12.5861C9.25791 12.4862 9.31404 12.3509 9.31443 12.2099V9.61294C9.31443 9.54238 9.3425 9.47467 9.3924 9.42477M11.7647 0.24326C11.4404 -0.0810867 10.9145 -0.0810867 10.59 0.24326C10.2656 0.567737 10.2656 1.09363 10.59 1.41798L10.801 1.62901L6.2768 6.15324H3.79014C3.50789 6.15402 3.23747 6.26616 3.03749 6.46511C2.62192 6.88081 2.62192 7.55471 3.03749 7.97041L4.94614 9.87907L1.11973 13.7055C0.577985 14.2474 0.193733 14.9262 0.00790926 15.6696C-0.0147014 15.7602 0.0119376 15.856 0.0779505 15.9221C0.143963 15.9881 0.239734 16.0146 0.330437 15.9922C1.07373 15.8063 1.75257 15.4219 2.29445 14.8802L6.12086 11.0538L8.02965 12.9624C8.44522 13.378 9.11912 13.378 9.53482 12.9624C9.7339 12.7625 9.84591 12.492 9.84669 12.2099V9.72313L14.3709 5.19891L14.582 5.40994C14.9064 5.73429 15.4323 5.73429 15.7567 5.40994C16.081 5.08559 16.081 4.5597 15.7567 4.23522L11.7647 0.24326ZM1.91787 14.5039C1.56441 14.8575 1.14273 15.1357 0.678564 15.3215C0.864388 14.8572 1.14247 14.4354 1.49606 14.0818L5.32247 10.2554L5.74454 10.6775L1.91787 14.5039Z" stroke="#1A598D" stroke-width="0.2"/>
</g>
</g>
<defs>
<clipPath id="clip0_3664_9648">
<rect width="16" height="16" fill="white"/>
</clipPath>
<clipPath id="clip1_3664_9648">
<rect width="16" height="16" fill="white"/>
</clipPath>
</defs>
</svg>
