<svg width="16" height="16" viewBox="0 0 16 16" fill="none" xmlns="http://www.w3.org/2000/svg">
<path d="M8 0C3.58172 0 0 3.58189 0 8.00038C0 12.4189 3.58172 16.0008 8 16.0008C12.4183 16.0008 16 12.4189 16 8.00038C16 5.87855 15.1571 3.84362 13.6569 2.34326C12.1566 0.842895 10.1217 0 8 0ZM10.7862 10.3343C10.9075 10.4598 10.9058 10.6594 10.7823 10.7829C10.6589 10.9063 10.4593 10.908 10.3338 10.7868L8 8.45288L5.66624 10.7868C5.54068 10.908 5.34109 10.9063 5.21766 10.7829C5.09422 10.6594 5.09249 10.4598 5.21376 10.3343L7.54752 8.00038L5.21376 5.66651C5.13057 5.58616 5.09721 5.46718 5.1265 5.35529C5.15578 5.24341 5.24316 5.15603 5.35504 5.12674C5.46692 5.09746 5.5859 5.13082 5.66624 5.21401L8 7.54788L10.3338 5.21401C10.4141 5.13082 10.5331 5.09746 10.645 5.12674C10.7568 5.15603 10.8442 5.24341 10.8735 5.35529C10.9028 5.46718 10.8694 5.58616 10.7862 5.66651L8.45248 8.00038L10.7862 10.3343Z" fill="#1A598D"/>
</svg>
