<svg width="18" height="18" viewBox="0 0 18 18" fill="none" xmlns="http://www.w3.org/2000/svg">
<path d="M11.7862 6.66651L9.45248 9.00038L11.7862 11.3343C11.9075 11.4598 11.9058 11.6594 11.7823 11.7829C11.6589 11.9063 11.4593 11.908 11.3338 11.7868L9 9.45288L6.66624 11.7868C6.54068 11.908 6.34109 11.9063 6.21766 11.7829C6.09422 11.6594 6.09249 11.4598 6.21376 11.3343L8.54752 9.00038L6.21376 6.66651C6.13057 6.58616 6.09721 6.46718 6.1265 6.35529C6.15578 6.24341 6.24316 6.15603 6.35504 6.12674C6.46692 6.09746 6.5859 6.13082 6.66624 6.21401L9 8.54788L11.3338 6.21401C11.4141 6.13082 11.5331 6.09746 11.645 6.12674C11.7568 6.15603 11.8442 6.24341 11.8735 6.35529C11.9028 6.46718 11.8694 6.58616 11.7862 6.66651ZM17 9.00038C17 13.4189 13.4183 17.0008 9 17.0008C4.58172 17.0008 1 13.4189 1 9.00038C1 4.58189 4.58172 1 9 1C11.1217 1 13.1566 1.8429 14.6569 3.34326C16.1571 4.84362 17 6.87855 17 9.00038ZM16.36 9.00038C16.36 4.93537 13.0648 1.64003 9 1.64003C4.93518 1.64003 1.64 4.93537 1.64 9.00038C1.64 13.0654 4.93518 16.3607 9 16.3607C13.0629 16.3562 16.3554 13.0635 16.36 9.00038Z" fill="#212121" stroke="#212121" stroke-width="0.3"/>
</svg>
